<svg version="1" xmlns="http://www.w3.org/2000/svg" width="346.667" height="346.667" viewBox="0 0 260.000000 260.000000"><path d="M117 .6C59.4 7.7 15.1 47.8 2.8 104c-3 13.5-3 38.5 0 52 11.5 52.3 50.5 90.7 103.2 101.7 11.7 2.4 36.3 2.4 48 0 52.8-11 91.7-49.4 103.2-101.7 3-13.5 3-38.5 0-52-11.3-51.4-49.7-89.9-100.7-101.1C147.7 1 124.7-.3 117 .6zM83.1 118.2l29.4 45.2.3-45.2.2-45.2h16v118h-16.5l-29-44.4-29-44.5-.3 44.5L54 191H38V73h15.6l29.5 45.2zm137.7 2.1l-.3 47.2-3.3 6.7c-6.2 12.7-17.3 18.8-34.3 18.8-9.7 0-19-2.8-25.2-7.5-5.4-4.2-10.3-13.3-11.3-21.3l-.7-5.2h8.2c7 0 8.1.2 8.1 1.7 0 3.9 2.3 9.5 5.2 12.8 3.9 4.5 11.9 7 19.1 6.1 6-.8 8.2-1.8 12.5-5.9 5.9-5.7 6.2-8.1 6.2-56.9V73h16.1l-.3 47.3z"/></svg>
